<?xml version="1.0" encoding="utf-8"?>
<!-- Generator: Adobe Illustrator 19.1.0, SVG Export Plug-In . SVG Version: 6.00 Build 0)  -->
<!DOCTYPE svg PUBLIC "-//W3C//DTD SVG 1.1//EN" "http://www.w3.org/Graphics/SVG/1.1/DTD/svg11.dtd">
<svg version="1.1" id="Layer_1" xmlns="http://www.w3.org/2000/svg" xmlns:xlink="http://www.w3.org/1999/xlink" x="0px" y="0px"
	 width="200px" height="120px" viewBox="-190 -44 200 120" enable-background="new -190 -44 200 120" xml:space="preserve">
<g>
	<path fill="#444444" d="M-97.6-4.1c1.4,0.7,2.1,2.1,2.8,4.8v31.1c0,2.8-1.4,4.2-2.8,4.8s-2.1,0.7-2.8,0.7h-15.2v9.7
		c0,2.8-2.8,5.5-8.3,7.6c-5.5,2.1-11.8,2.8-20.1,2.8s-15.2-1.4-20.8-3.5c-5.5-2.1-8.3-4.2-8.3-6.9v-62.2c0-2.8,2.8-5.5,8.3-7.6
		c5.5-2.1,12.4-2.8,20.1-2.8c8.3,0,14.5,1.4,20.1,2.8c5.5,1.4,8.3,4.2,8.3,7.6v10.4h15.2C-100.4-4.8-99-4.8-97.6-4.1z M-131.5-11.7
		c3.5-0.7,5.5-2.1,5.5-3.5s-2.1-2.8-5.5-3.5s-7.6-1.4-13.1-1.4c-5.5,0-9.7,0.7-13.1,1.4c-3.5,0.7-4.8,2.1-4.8,3.5s2.1,2.8,5.5,3.5
		c3.5,0.7,7.6,1.4,13.1,1.4C-139.1-10.3-135-10.3-131.5-11.7z M-157.8,0.1h-4.8v41.5h5.5V0.1H-157.8z M-141.9,5.6h-4.8v41.5h5.5V5.6
		H-141.9z M-126,0.1h-5.5v41.5h5.5V0.1z M-105.2,5.6h-10.4v20.8h10.4V5.6z"/>
	<path fill="#444444" d="M-13.2-14.4C-9.1-10.3-7-5.4-7,0.1c-0.7,7.6-2.8,11.8-6.2,12.5c-3.5,0.7-6.9,0-9-2.1
		c-2.1-1.4-4.2-1.4-6.2,0.7s-1.4,5.5,1.4,9.7c1.4,2.1,2.8,4.2,3.5,6.2c0.7,2.1,1.4,4.8,1.4,6.9c0,6.2-2.8,11.1-6.9,13.8
		S-40.2,52-47.8,52h-31.1c0,0,0-1.4,0.7-2.8c0.7-1.4,2.1-2.1,4.8-2.8h4.1c-0.7-0.7-2.8-3.5-6.2-8.3s-0.7-8.3,6.2-11.8
		c-4.8,0-8.3-1.4-9.7-2.8c-1.4-1.4-3.5-2.1-5.5-2.8c-2.8,0-4.2-1.4-4.2-2.8s1.4-2.1,4.2-2.8c2.8,0,4.8,1.4,6.9,2.1
		c2.1,0.7,4.2,0.7,6.2-0.7c0.7-0.7,0.7-1.4,0.7-2.8s-0.7-1.4-2.8-1.4c-2.8,0.7-5.5,0.7-7.6,0c-2.1-0.7-4.2-1.4-4.8-2.1
		c0.7-6.2,2.1-11.1,4.8-13.1s4.2-3.5,4.8-3.5l0.7-2.8c0,0,0,0,0.7,0c0.7,0,1.4,0.7,2.1,1.4c0-0.7,0.7-1.4,0.7-1.4l0.7-0.7
		c0,0,0.7,0,1.4,0.7c0.7,0.7,0.7,0.7,0.7,2.1c3.5,0,7.6,2.8,12.4,7.6s7.6,13.8,8.3,24.9c1.4-7.6,1.4-13.8,0.7-18s-0.7-9-0.7-13.8
		c0-4.2,2.1-7.6,6.2-10.4s9-4.2,14.5-4.2C-21.5-20-16.7-18.6-13.2-14.4z M-75.5,4.9c0.7-0.7,0.7-1.4,0.7-2.1s0-1.4-0.7-2.1
		c-0.7-0.7-1.4-0.7-2.1-0.7c-0.7,0-1.4,0-2.1,0.7c-0.7,0.7-0.7,1.4-0.7,2.1s0,1.4,0.7,2.1c0.7,0.7,1.4,0.7,2.1,0.7
		C-76.9,5.6-75.5,4.9-75.5,4.9z"/>
</g>
</svg>
