<?xml version="1.0" encoding="utf-8"?>
<!-- Generator: Adobe Illustrator 19.1.0, SVG Export Plug-In . SVG Version: 6.00 Build 0)  -->
<!DOCTYPE svg PUBLIC "-//W3C//DTD SVG 1.1//EN" "http://www.w3.org/Graphics/SVG/1.1/DTD/svg11.dtd">
<svg version="1.1" id="Layer_1" xmlns="http://www.w3.org/2000/svg" xmlns:xlink="http://www.w3.org/1999/xlink" x="0px" y="0px"
	 width="30px" height="30px" viewBox="0 0 30 30" enable-background="new 0 0 30 30" xml:space="preserve">
<g>
	<path fill="#444444" d="M13.9,12.6c0.2,0.1,0.3,0.3,0.4,0.7v4.5c0,0.4-0.2,0.6-0.4,0.7s-0.3,0.1-0.4,0.1h-2.2V20
		c0,0.4-0.4,0.8-1.2,1.1s-1.7,0.4-2.9,0.4C6,21.5,5,21.3,4.2,21S3,20.4,3,20v-9c0-0.4,0.4-0.8,1.2-1.1S6,9.5,7.1,9.5
		c1.2,0,2.1,0.2,2.9,0.4s1.2,0.6,1.2,1.1v1.5h2.2C13.5,12.5,13.7,12.5,13.9,12.6z M9,11.5c0.5-0.1,0.8-0.3,0.8-0.5
		c0-0.2-0.3-0.4-0.8-0.5s-1.1-0.2-1.9-0.2s-1.4,0.1-1.9,0.2S4.5,10.8,4.5,11c0,0.2,0.3,0.4,0.8,0.5s1.1,0.2,1.9,0.2
		C7.9,11.7,8.5,11.7,9,11.5z M5.2,13.2H4.5v6h0.8V13.2z M7.5,14H6.8v6h0.8V14z M9.8,13.2H9v6h0.8V13.2z M12.8,14h-1.5v3h1.5V14z"/>
	<path fill="#444444" d="M26.1,11.1c0.6,0.6,0.9,1.3,0.9,2.1c-0.1,1.1-0.4,1.7-0.9,1.8s-1,0-1.3-0.3c-0.3-0.2-0.6-0.2-0.9,0.1
		s-0.2,0.8,0.2,1.4c0.2,0.3,0.4,0.6,0.5,0.9s0.2,0.7,0.2,1c0,0.9-0.4,1.6-1,2s-1.6,0.6-2.7,0.6h-4.5c0,0,0-0.2,0.1-0.4
		s0.3-0.3,0.7-0.4H18c-0.1-0.1-0.4-0.5-0.9-1.2S17,17.5,18,17c-0.7,0-1.2-0.2-1.4-0.4s-0.5-0.3-0.8-0.4c-0.4,0-0.6-0.2-0.6-0.4
		s0.2-0.3,0.6-0.4c0.4,0,0.7,0.2,1,0.3s0.6,0.1,0.9-0.1c0.1-0.1,0.1-0.2,0.1-0.4S17.7,15,17.4,15c-0.4,0.1-0.8,0.1-1.1,0
		s-0.6-0.2-0.7-0.3c0.1-0.9,0.3-1.6,0.7-1.9s0.6-0.5,0.7-0.5l0.1-0.4c0,0,0,0,0.1,0s0.2,0.1,0.3,0.2c0-0.1,0.1-0.2,0.1-0.2
		s0.1-0.1,0.1-0.1s0.1,0,0.2,0.1S18,12,18,12.2c0.5,0,1.1,0.4,1.8,1.1s1.1,2,1.2,3.6c0.2-1.1,0.2-2,0.1-2.6s-0.1-1.3-0.1-2
		c0-0.6,0.3-1.1,0.9-1.5s1.3-0.6,2.1-0.6C24.9,10.3,25.6,10.5,26.1,11.1z M17.1,13.9c0.1-0.1,0.1-0.2,0.1-0.3s0-0.2-0.1-0.3
		s-0.2-0.1-0.3-0.1s-0.2,0-0.3,0.1s-0.1,0.2-0.1,0.3s0,0.2,0.1,0.3s0.2,0.1,0.3,0.1S17.1,13.9,17.1,13.9z"/>
</g>
</svg>
