<?xml version="1.0" encoding="utf-8"?>
<!-- Generator: Adobe Illustrator 19.2.0, SVG Export Plug-In . SVG Version: 6.00 Build 0)  -->
<!DOCTYPE svg PUBLIC "-//W3C//DTD SVG 1.1//EN" "http://www.w3.org/Graphics/SVG/1.1/DTD/svg11.dtd">
<svg version="1.1" id="Layer_1" xmlns="http://www.w3.org/2000/svg" xmlns:xlink="http://www.w3.org/1999/xlink" x="0px" y="0px"
	 width="81.7px" height="73px" viewBox="0 0 81.7 73" style="enable-background:new 0 0 81.7 73;" xml:space="preserve">
<style type="text/css">
	.st0{fill:#F8F8E4;}
</style>
<g>
	<path class="st0" d="M75.5,6.6c4.1,4.1,6.2,9,6.2,14.5c-0.7,7.6-2.8,11.8-6.2,12.5c-3.5,0.7-6.9,0-9-2.1c-2.1-1.4-4.2-1.4-6.2,0.7
		s-1.4,5.5,1.4,9.7c1.4,2.1,2.8,4.2,3.5,6.2c0.7,2.1,1.4,4.8,1.4,6.9c0,6.2-2.8,11.1-6.9,13.8S48.5,73,40.9,73H9.8
		c0,0,0-1.4,0.7-2.8c0.7-1.4,2.1-2.1,4.8-2.8h4.1c-0.7-0.7-2.8-3.5-6.2-8.3s-0.7-8.3,6.2-11.8c-4.8,0-8.3-1.4-9.7-2.8
		c-1.4-1.4-3.5-2.1-5.5-2.8c-2.8,0-4.2-1.4-4.2-2.8s1.4-2.1,4.2-2.8c2.8,0,4.8,1.4,6.9,2.1s4.2,0.7,6.2-0.7c0.7-0.7,0.7-1.4,0.7-2.8
		c0-1.4-0.7-1.4-2.8-1.4c-2.8,0.7-5.5,0.7-7.6,0s-4.2-1.4-4.8-2.1C3.5,25,4.9,20.1,7.6,18.1s4.2-3.5,4.8-3.5l0.7-2.8c0,0,0,0,0.7,0
		s1.4,0.7,2.1,1.4c0-0.7,0.7-1.4,0.7-1.4l0.7-0.7c0,0,0.7,0,1.4,0.7c0.7,0.7,0.7,0.7,0.7,2.1c3.5,0,7.6,2.8,12.4,7.6
		s7.6,13.8,8.3,24.9c1.4-7.6,1.4-13.8,0.7-18s-0.7-9-0.7-13.8c0-4.2,2.1-7.6,6.2-10.4S55.3,0,60.8,0C67.2,1,72,2.4,75.5,6.6z
		 M13.2,25.9c0.7-0.7,0.7-1.4,0.7-2.1c0-0.7,0-1.4-0.7-2.1C12.5,21,11.8,21,11.1,21S9.7,21,9,21.7c-0.7,0.7-0.7,1.4-0.7,2.1
		c0,0.7,0,1.4,0.7,2.1c0.7,0.7,1.4,0.7,2.1,0.7S13.2,25.9,13.2,25.9z"/>
</g>
</svg>
